HIERARCHY
ROOT Hips
{
	OFFSET 0.00000 0.00000 0.00000
	CHANNELS 6 Xposition Yposition Zposition Yrotation Zrotation Xrotation 
	JOINT Lumbar
	{
		OFFSET 0 0 0
		CHANNELS 3 Zrotation Xrotation Yrotation
		JOINT Neck
		{
			OFFSET 0.00 0.2701 0.00
			CHANNELS 3 Zrotation Xrotation Yrotation
			End Site
			{
				OFFSET 0.00 0.1379 0.00
			}
		}
		JOINT RightShoulder
		{
			OFFSET 0.0119 0.2289 0.1181
			CHANNELS 3 Zrotation Xrotation Yrotation
			JOINT RightElbow
			{
				OFFSET 0.00 -0.1475 0.00
				CHANNELS 2 Zrotation Yrotation
				JOINT RightWrist
				{
					OFFSET 0.00 -0.1605 0.00
					CHANNELS 2 Zrotation Xrotation
					End Site
					{
						OFFSET 0.0040 -0.1068 0.0006
					}
				}
			}
		}
		JOINT LeftShoulder
		{
			OFFSET 0.0119 0.2289 -0.1181
			CHANNELS 3 Zrotation Xrotation Yrotation
			JOINT LeftElbow
			{
				OFFSET 0.00 -0.1475 0.00
				CHANNELS 2 Zrotation Yrotation
				JOINT LeftWrist
				{
					OFFSET 0.00 -0.1605 0.00
					CHANNELS 2 Zrotation Xrotation
					End Site
					{
						OFFSET 0.0040 -0.1068 -0.0006
					}
				}
			}
		}
	}
	JOINT RightHip
	{
		OFFSET 0.0316 -0.0424 0.0458
		CHANNELS 3 Zrotation Xrotation Yrotation
		JOINT RightKnee
		{
			OFFSET 0.00 -0.2438 0.00
			CHANNELS 1 Zrotation
			JOINT RightAnkle
			{
				OFFSET 0.00 -0.2449 0.00
				CHANNELS 3 Zrotation Xrotation Yrotation
				End Site
				{
					OFFSET 0.1237 -0.0542 0.0051
				}
			}
		}
	}
	JOINT LeftHip
	{
		OFFSET 0.0316 -0.0424 -0.0458
		CHANNELS 3 Zrotation Xrotation Yrotation
		JOINT LeftKnee
		{
			OFFSET 0.00 -0.2438 0.00
			CHANNELS 1 Zrotation
			JOINT LeftAnkle
			{
				OFFSET 0.00 -0.2449 0.00
				CHANNELS 3 Zrotation Xrotation Yrotation
				End Site
				{
					OFFSET 0.1237 -0.0542 -0.0051
				}
			}
		}
	}
}
MOTION
Frames: 22
Frame Time: 0.02
-0.00018 -0.00018 0.00015 26.55336 -20.17223 -1.31508 46.99958 -0.89436 -4.20299 -12.48786 2.73068 -0.09451 -20.48764 -7.38183 1.55228 31.74705 97.7257 9.81544 1.20354 -23.99777 6.23269 2.26085 32.56056 -106.78533 15.9076 -1.29421 27.87595 0.40604 3.00432 -20.21513 -7.40471 -5.46374 -3.61654 32.84364 2.21282 3.6239 -24.07751 -6.40065 1.7808 1.70028
-0.00067 -0.00023 2e-05 26.62742 -20.15586 -1.35146 46.9905 -0.9074 -4.22227 -12.51413 2.72413 -0.095 -20.51698 -7.32507 1.13958 31.66546 97.81785 9.78036 1.20012 -24.00485 6.22241 2.34406 32.55174 -106.79707 15.93894 -1.30138 27.88612 0.31015 2.46387 -20.21881 -7.35844 -5.42993 -3.59316 32.87726 2.15658 3.37584 -24.08425 -6.40519 1.83716 1.7141
-0.00117 -0.00029 -0.00012 26.70134 -20.13951 -1.38776 46.98142 -0.9204 -4.24147 -12.54031 2.71762 -0.09548 -20.54615 -7.26782 0.72551 31.58402 97.91635 9.74727 1.19772 -24.01192 6.21158 2.42892 32.5431 -106.81595 15.97236 -1.30971 27.89627 0.21447 1.92469 -20.2225 -7.3123 -5.3962 -3.56985 32.91082 2.10055 3.12874 -24.09097 -6.40973 1.8933 1.72786
-0.00166 -0.00034 -0.00025 26.77518 -20.12319 -1.42403 46.97237 -0.9334 -4.26069 -12.56651 2.71109 -0.09596 -20.57538 -7.21106 0.31344 31.50264 98.00977 9.71273 1.19454 -24.01897 6.20118 2.51237 32.53434 -106.82933 16.0041 -1.31714 27.90641 0.11886 1.38585 -20.22618 -7.26617 -5.3625 -3.54654 32.94435 2.04448 2.88148 -24.09769 -6.41426 1.94948 1.74164
-0.00215 -0.00039 -0.00039 26.84914 -20.10685 -1.46035 46.96334 -0.94646 -4.28001 -12.59281 2.70452 -0.09644 -20.60483 -7.1552 -0.09568 31.42122 98.09301 9.67515 1.18978 -24.02603 6.19172 2.59294 32.52535 -106.83147 16.03253 -1.32269 27.91656 0.02306 0.8459 -20.22984 -7.21993 -5.32872 -3.52319 32.97793 1.9882 2.63317 -24.10442 -6.41878 2.00587 1.75549
-0.00265 -0.00044 -0.00053 26.92295 -20.09048 -1.4966 46.95418 -0.95931 -4.29894 -12.61872 2.69813 -0.09692 -20.63343 -7.09511 -0.51978 31.33975 98.22277 9.65124 1.1922 -24.03313 6.17812 2.68652 32.51744 -106.88465 16.07619 -1.33671 27.92673 -0.07235 0.30835 -20.23359 -7.17398 -5.2951 -3.49995 33.01143 1.93271 2.38863 -24.11115 -6.42335 2.0615 1.76906
-0.00314 -0.00049 -0.00066 26.99698 -20.07418 -1.53297 46.94527 -0.97255 -4.31862 -12.64539 2.69139 -0.0974 -20.66364 -7.04316 -0.91487 31.25834 98.26243 9.60085 1.18071 -24.0401 6.17241 2.75517 32.50735 -106.83898 16.09029 -1.33437 27.93683 -0.16845 -0.23342 -20.23716 -7.12749 -5.2612 -3.47651 33.04506 1.87568 2.13682 -24.11787 -6.42783 2.11859 1.78317
-0.00364 -0.00055 -0.0008 27.07081 -20.05782 -1.56922 46.93613 -0.98547 -4.33764 -12.67135 2.68496 -0.09788 -20.6925 -6.98453 -1.33379 31.17711 98.37851 9.57308 1.18104 -24.04726 6.16025 2.84435 32.49929 -106.87732 16.12956 -1.34587 27.94701 -0.26391 -0.77132 -20.2409 -7.0815 -5.22756 -3.45325 33.07858 1.82005 1.89162 -24.1246 -6.43239 2.17435 1.79679
-0.00413 -0.0006 -0.00093 27.14445 -20.04135 -1.60537 46.92671 -0.99787 -4.35575 -12.69648 2.67895 -0.09836 -20.71918 -6.91432 -1.79406 31.09509 98.61573 9.58044 1.2 -24.05438 6.13683 2.96878 32.49369 -107.04804 16.20831 -1.37944 27.95722 -0.35863 -1.30467 -20.24484 -7.03612 -5.19423 -3.4302 33.11194 1.76622 1.65481 -24.13132 -6.43705 2.22844 1.80979
-0.00462 -0.00065 -0.00108 27.21932 -20.02544 -1.64225 46.91892 -1.01285 -4.37876 -12.72651 2.67066 -0.09885 -20.75679 -6.90046 -2.05324 31.01456 98.23944 9.40819 1.12439 -24.06094 6.16801 2.92097 32.47388 -106.54648 16.08617 -1.30155 27.96709 -0.45774 -1.86477 -20.24759 -6.98721 -5.15906 -3.40592 33.14612 1.70228 1.37066 -24.13804 -6.44117 2.292 1.82628
-0.00512 -0.0007 -0.0012 27.29148 -20.0084 -1.67747 46.90768 -1.02264 -4.39165 -12.74613 2.66709 -0.09932 -20.77237 -6.77434 -2.71282 30.93287 99.10347 9.60026 1.2401 -24.06919 6.09057 3.2168 32.48404 -107.4054 16.37082 -1.44877 27.97778 -0.54749 -2.36799 -20.25286 -6.94577 -5.12782 -3.38425 33.17866 1.65954 1.18578 -24.14481 -6.44639 2.33569 1.83547
-0.0056 -0.00075 -0.00126 27.35726 -19.98734 -1.70911 46.88646 -1.01622 -4.37501 -12.7374 2.67757 -0.09964 -20.71645 -6.28156 -4.68257 30.82912 103.86205 10.92631 1.95536 -24.07569 5.65867 4.62749 32.57586 -112.52402 17.92788 -2.30451 27.98944 -0.61185 -2.71626 -20.2653 -6.92493 -5.10727 -3.36967 33.20563 1.67654 1.28113 -24.15145 -6.45499 2.32342 1.82376
-0.00609 -0.0008 -0.00129 27.4202 -19.96506 -1.73897 46.86159 -1.005 -4.34864 -12.71806 2.6927 -0.09999 -20.63912 -5.68637 -7.01776 30.72589 109.78295 12.59587 2.84998 -24.0836 5.1286 6.3513 32.69684 -118.91925 19.86751 -3.37077 28.00184 -0.66652 -3.00629 -20.28026 -6.91163 -5.09074 -3.35775 33.2309 1.71461 1.47482 -24.15828 -6.46461 2.29146 1.80486
-0.00657 -0.00085 -0.00134 27.48359 -19.94428 -1.76893 46.83902 -0.99718 -4.3278 -12.70355 2.70489 -0.1003 -20.5805 -5.17703 -9.04438 30.63708 114.84142 14.01728 3.61253 -24.09694 4.67973 7.81968 32.80616 -124.37631 21.52627 -4.27974 28.0151 -0.72574 -3.32345 -20.29386 -6.89477 -5.07237 -3.34459 33.25797 1.74185 1.61821 -24.16508 -6.47357 2.26945 1.78979
-0.00707 -0.00089 -0.00139 27.55012 -19.92057 -1.80161 46.8148 -0.98396 -4.30192 -12.68942 2.7202 -0.10052 -20.48938 -4.50381 -11.66273 30.49391 121.28101 15.81735 4.58456 -24.09073 4.07438 9.76665 32.91304 -131.31435 23.62513 -5.44389 28.02455 -0.78531 -3.64156 -20.30822 -6.87829 -5.05385 -3.33138 33.28177 1.774 1.78495 -24.17129 -6.4835 2.2432 1.77233
-0.00753 -0.00094 -0.00142 27.60995 -19.90133 -1.82854 46.79181 -0.98114 -4.28465 -12.67146 2.73061 -0.1012 -20.45401 -4.14476 -13.14845 30.45468 125.15976 16.92343 5.16822 -24.11795 3.77396 10.79057 33.02662 -135.51173 24.91362 -6.13316 28.04057 -0.84061 -3.93901 -20.32181 -6.86306 -5.03689 -3.31913 33.31062 1.80147 1.92705 -24.17922 -6.4915 2.22108 1.75813
-0.00791 -0.00099 -0.00136 27.64548 -19.90675 -1.83707 46.78545 -1.00521 -4.28963 -12.65038 2.72242 -0.10083 -20.63423 -4.70327 -11.3042 30.78466 121.32469 15.90971 4.58764 -24.30578 4.32245 9.19159 33.20479 -131.46338 23.73255 -5.40057 28.0888 -0.89768 -4.23759 -20.33088 -6.84703 -5.02033 -3.30682 33.36659 1.8063 1.97025 -24.18836 -6.49535 2.21592 1.75501
-0.00826 -0.00104 -0.00128 27.67412 -19.91488 -1.84047 46.77862 -1.04007 -4.30399 -12.62513 2.71016 -0.1013 -20.85906 -5.57651 -8.3303 31.20521 114.93457 14.20527 3.61872 -24.51668 5.18558 6.65298 33.38428 -124.67824 21.74676 -4.19351 28.14163 -0.94896 -4.51063 -20.33945 -6.83228 -5.0055 -3.29562 33.426 1.8066 1.9861 -24.20021 -6.49699 2.21564 1.75545
-0.00861 -0.00109 -0.0012 27.712 -19.91336 -1.8481 46.76336 -1.07246 -4.31706 -12.59839 2.70202 -0.10298 -21.02864 -6.28976 -5.94521 31.52859 109.95399 12.89854 2.85921 -24.66911 5.91444 4.5419 33.52123 -119.38836 20.22207 -3.24261 28.1821 -0.99528 -4.76479 -20.34944 -6.81876 -4.99206 -3.28545 33.47459 1.81191 2.01938 -24.21266 -6.49864 2.21247 1.75394
-0.00901 -0.00112 -0.00113 27.72992 -19.94563 -1.84747 46.78263 -1.09607 -4.31866 -12.58476 2.68334 -0.09818 -21.35212 -7.07243 -3.24683 32.08285 103.98274 11.26069 1.96771 -25.0148 6.59832 2.43678 33.81353 -113.09109 18.31488 -2.12892 28.2631 -1.07233 -5.13981 -20.35446 -6.79861 -4.97052 -3.2695 33.55941 1.80527 2.03657 -24.21597 -6.50436 2.2108 1.75324
-0.0093 -0.00119 -0.00104 27.78037 -19.91032 -1.86306 46.73221 -1.13853 -4.34471 -12.54399 2.68699 -0.10677 -21.35715 -7.78483 -0.93746 32.18476 99.43127 10.13059 1.25562 -24.9752 7.45784 0.09558 33.81068 -108.21317 16.99967 -1.23763 28.26434 -1.08536 -5.26508 -20.36969 -6.79151 -4.96501 -3.26504 33.57311 1.82246 2.07753 -24.24075 -6.50128 2.20824 1.75223
-0.00929 -0.00138 -0.00092 27.98512 -19.66839 -1.9224 46.46806 -1.2481 -4.45145 -12.4207 2.74065 -0.15475 -20.54903 -8.24103 0.10823 30.96459 99.60927 10.68558 1.14265 -23.76985 8.67767 -2.69563 32.75298 -108.01855 17.58416 -1.08618 28.01271 -0.91259 -4.64357 -20.41313 -6.82884 -5.01371 -3.29878 33.35863 1.90456 2.20749 -24.30909 -6.47274 2.19462 1.74529
